<svg width="200" height="201" viewBox="0 0 200 201" fill="none" xmlns="http://www.w3.org/2000/svg">
<path d="M100 0.631836C44.772 0.631836 0 45.4038 0 100.632C0 155.86 44.772 200.632 100 200.632C155.228 200.632 200 155.86 200 100.632C200 45.4038 155.23 0.631836 100 0.631836ZM100 189.718C50.7988 189.718 10.9135 149.833 10.9135 100.632C10.9135 51.4307 50.8011 11.5476 100 11.5476C149.201 11.5476 189.086 51.4329 189.086 100.634C189.086 149.835 149.201 189.718 100 189.718ZM120.131 129.92L113.689 141.079H39.6086L76.649 76.9238H89.5328L58.9343 129.92H120.131ZM166.048 95.0535L129.007 159.209H116.124L146.722 106.212H85.5253L91.9672 95.0535H166.048ZM160.394 60.1865L153.952 71.3454H39.6086L46.0505 60.1865H160.394Z" fill="black"/>
</svg>
