<svg width="469" height="101" viewBox="0 0 469 101" fill="none" xmlns="http://www.w3.org/2000/svg">
<path d="M326.228 35.9982H315.084V65.2754H326.228C335.664 65.2754 341.761 59.5296 341.761 50.6325C341.761 41.7354 335.672 35.9982 326.228 35.9982ZM337.141 50.6411C337.141 57.209 333.162 60.9767 326.237 60.9767H319.559V40.3054H326.237C333.162 40.3054 337.141 44.0732 337.141 50.6411ZM395.01 56.601C395.01 62.0214 390.314 65.6608 383.329 65.6608C379.196 65.6608 374.73 64.1879 371.955 61.9187L371.511 61.5504L373.987 57.9368L374.517 58.3821C376.207 59.8122 379.674 61.3535 383.312 61.3535C386.591 61.3535 390.425 60.1804 390.425 56.8836C390.425 54.6315 388.512 53.4156 384.217 52.9275L381.399 52.6106C375.721 51.9683 372.595 49.1169 372.595 44.5784C372.595 39.2351 377.095 35.6471 383.799 35.6471C387.744 35.6471 391.142 36.6832 394.199 38.824L394.695 39.1666L392.389 42.8315L391.851 42.4633C389.409 40.7935 386.693 39.9543 383.782 39.9543C379.777 39.9543 377.189 41.6926 377.189 44.39C377.189 47.2415 380.34 47.978 383.081 48.3119L385.737 48.6288C391.8 49.3481 395.01 52.1139 395.01 56.601ZM400.501 35.9982H404.967V65.2754H400.501V35.9982ZM468.438 35.9982V65.2754H464.604L448.235 43.9961V65.2754H443.769V35.9982H447.603L463.972 57.2775V35.9982H468.438ZM350.906 60.9853V52.662L365.499 52.6021V48.3376L350.906 48.3975V40.2712H365.773L368.24 35.9896H346.432V65.2669H368.42L365.943 60.9853H350.906ZM438.893 49.0483L425.948 48.997L423.454 53.3127L434.128 53.3042C433.436 58.3993 430.055 61.3107 424.769 61.3107C418.809 61.3107 414.48 56.8236 414.48 50.6325C414.48 44.4414 418.869 39.9543 424.906 39.9543C428.065 39.9543 430.969 41.2902 432.881 43.6108L433.317 44.1331L436.613 40.9648L436.22 40.511C433.462 37.3426 429.449 35.5957 424.914 35.5957C416.188 35.5957 409.86 41.9238 409.86 50.6325C409.86 60.3859 417.545 65.6436 424.778 65.6436C433.138 65.6436 438.978 59.4097 438.978 50.4869C438.978 50.2386 438.961 49.9646 438.944 49.6221L438.893 49.0483Z" fill="black"/>
<path d="M301.524 35.9982V65.2754H297.699L281.329 43.9961V65.2754H276.863V35.9982H280.689L297.058 57.2775V35.9982H301.524ZM267.163 53.4412C267.163 58.4421 264.371 61.3193 259.486 61.3193C254.61 61.3193 251.81 58.4506 251.81 53.4412V35.9982H247.361V53.6809C247.361 60.951 252.117 65.6522 259.486 65.6522C266.864 65.6522 271.629 60.951 271.629 53.6809V35.9982H267.163V53.4412ZM242.485 49.0483L229.54 48.997L227.046 53.3127L237.72 53.3042C237.028 58.3993 233.647 61.3107 228.361 61.3107C222.401 61.3107 218.072 56.8236 218.072 50.6325C218.072 44.4414 222.461 39.9543 228.498 39.9543C231.657 39.9543 234.561 41.2902 236.473 43.6108L236.909 44.1331L240.205 40.9648L239.812 40.511C237.054 37.3426 233.041 35.5957 228.506 35.5957C219.779 35.5957 213.452 41.9238 213.452 50.6325C213.452 60.3858 221.137 65.6436 228.37 65.6436C236.73 65.6436 242.57 59.4097 242.57 50.4869C242.57 50.2386 242.553 49.9646 242.536 49.622L242.485 49.0483Z" fill="black"/>
<path d="M200.549 35.9893V65.2666H196.724L180.354 43.9958V65.2666H175.889V35.9893H179.714L196.075 57.2686V35.9893H200.549ZM142.082 40.2965L144.559 35.9893H120.641L118.164 40.2965H128.539V65.2752H144.559L142.082 60.9679H132.997V40.2965H142.082ZM154.114 60.985V52.6617L168.707 52.6018V48.3373L154.114 48.3972V40.2708H168.98L171.448 35.9893H149.639V65.2666H171.628L169.151 60.985H154.114Z" fill="black"/>
<path d="M49.8598 0.631836C22.3212 0.631836 0 23.0158 0 50.6318C0 78.2478 22.3212 100.632 49.8598 100.632C77.3985 100.632 99.7197 78.2478 99.7197 50.6318C99.7197 23.0158 77.3985 0.631836 49.8598 0.631836ZM49.8598 95.1771C25.327 95.1771 5.43941 75.2336 5.43941 50.6318C5.43941 26.03 25.327 6.08653 49.8598 6.08653C74.3927 6.08653 94.2803 26.03 94.2803 50.6318C94.2717 75.2336 74.3927 95.1771 49.8598 95.1771ZM59.8933 65.2833L56.6826 70.8664H19.7424L38.2125 38.7891H44.6339L29.3745 65.2919H59.8933V65.2833ZM82.7866 47.8488L64.3166 79.9262H57.8951L73.1545 53.4234H42.6443L45.855 47.8403H82.7866V47.8488ZM79.9687 30.4143L76.758 35.9975H19.7424L22.9531 30.4143H79.9687Z" fill="black"/>
</svg>
